<svg width="24" height="25" viewBox="0 0 24 25" fill="none" xmlns="http://www.w3.org/2000/svg">
<g id="material-symbols:call">
<path id="Vector" d="M19.95 21.167C17.8667 21.167 15.8083 20.713 13.775 19.805C11.7417 18.897 9.89167 17.6093 8.225 15.942C6.55833 14.2747 5.271 12.4247 4.363 10.392C3.455 8.35933 3.00067 6.30099 3 4.21699C3 3.91699 3.1 3.66699 3.3 3.46699C3.5 3.26699 3.75 3.16699 4.05 3.16699H8.1C8.33333 3.16699 8.54167 3.24633 8.725 3.40499C8.90833 3.56366 9.01667 3.75099 9.05 3.96699L9.7 7.46699C9.73333 7.73366 9.725 7.95866 9.675 8.14199C9.625 8.32533 9.53333 8.48366 9.4 8.61699L6.975 11.067C7.30833 11.6837 7.704 12.2793 8.162 12.854C8.62 13.4287 9.12433 13.983 9.675 14.517C10.1917 15.0337 10.7333 15.513 11.3 15.955C11.8667 16.397 12.4667 16.801 13.1 17.167L15.45 14.817C15.6 14.667 15.796 14.5547 16.038 14.48C16.28 14.4053 16.5173 14.3843 16.75 14.417L20.2 15.117C20.4333 15.1837 20.625 15.3047 20.775 15.48C20.925 15.6553 21 15.851 21 16.067V20.117C21 20.417 20.9 20.667 20.7 20.867C20.5 21.067 20.25 21.167 19.95 21.167Z" fill="#F06F22"/>
</g>
</svg>
